<?xml version="1.0" encoding="UTF-8"?>
<!DOCTYPE svg PUBLIC "-//W3C//DTD SVG 1.1//EN" "http://www.w3.org/Graphics/SVG/1.1/DTD/svg11.dtd">
<!-- Creator: CorelDRAW 2019 -->
<svg xmlns="http://www.w3.org/2000/svg" xml:space="preserve" width="0.185146in" height="0.235638in" version="1.1" style="shape-rendering:geometricPrecision; text-rendering:geometricPrecision; image-rendering:optimizeQuality; fill-rule:evenodd; clip-rule:evenodd"
viewBox="0 0 11.12 14.15"
 xmlns:xlink="http://www.w3.org/1999/xlink">
 <defs>
  <style type="text/css">
   <![CDATA[
    .fil0 {fill:#373435;fill-rule:nonzero}
   ]]>
  </style>
 </defs>
 <g id="Layer_x0020_1">
  <metadata id="CorelCorpID_0Corel-Layer"/>
  <path class="fil0" d="M2.53 4.04c0.06,-0.7 0.36,-1.12 0.88,-1.26l0.03 -0.03c0.44,-0.11 0.66,-0.32 0.66,-0.63l0 -0.66c0,-0.4 0.14,-0.74 0.43,-1.03 0.28,-0.28 0.63,-0.43 1.03,-0.43 0.4,0 0.74,0.14 1.02,0.43 0.29,0.29 0.43,0.63 0.43,1.03l0 0.66c0,0.34 0.22,0.56 0.66,0.66l0.06 0c0.51,0.15 0.79,0.57 0.85,1.26l-6.06 0zm3.03 -3.03c-0.27,0 -0.41,0.15 -0.41,0.44 0,0.29 0.14,0.44 0.41,0.44 0.29,0 0.44,-0.15 0.44,-0.44 0,-0.29 -0.15,-0.44 -0.44,-0.44zm4.71 0c0.23,0 0.43,0.08 0.6,0.25 0.17,0.17 0.25,0.38 0.25,0.63l0 11.37c0,0.25 -0.08,0.46 -0.25,0.63 -0.17,0.17 -0.37,0.25 -0.6,0.25l-4.71 0 -4.68 0c-0.23,0 -0.44,-0.08 -0.61,-0.25 -0.18,-0.17 -0.27,-0.38 -0.27,-0.63l0 -11.37c0,-0.25 0.09,-0.46 0.27,-0.63 0.18,-0.17 0.38,-0.25 0.61,-0.25l2.31 0 0 0.41c0,0.17 -0.06,0.31 -0.18,0.43 -0.12,0.12 -0.26,0.17 -0.43,0.17l-1.17 0c-0.25,0 -0.38,0.14 -0.38,0.41l0 10.33c0,0.25 0.12,0.38 0.35,0.38l8.37 0c0.23,0 0.35,-0.13 0.35,-0.38l0 -10.33c0,-0.27 -0.13,-0.41 -0.38,-0.41l-1.17 0c-0.17,0 -0.32,-0.06 -0.44,-0.17 -0.13,-0.12 -0.19,-0.26 -0.19,-0.43l0 -0.41 2.34 0zm-8.24 5.05l0 -1.01 3.54 0 0 1.01 -3.54 0zm0 6.06l0 -1.01 5.05 0 0 1.01 -5.05 0zm0 -2.02l0 -1.01 4.08 0 0 1.01 -4.08 0zm0 -2.02l0 -1.01 6.57 0 0 1.01 -6.57 0z"/>
 </g>
</svg>
